<svg xmlns="http://www.w3.org/2000/svg" xmlns:xlink="http://www.w3.org/1999/xlink" width="200" zoomAndPan="magnify" viewBox="0 0 150 149.999998" height="200" preserveAspectRatio="xMidYMid meet" version="1.0"><defs><g/><clipPath id="id1"><path d="M 3.808594 3.808594 L 145.558594 3.808594 L 145.558594 145.558594 L 3.808594 145.558594 Z M 3.808594 3.808594 " clip-rule="nonzero"/></clipPath></defs><g fill="#556ee6" fill-opacity="1"><g transform="translate(29.272009, 97.808456)"><g><path d="M 3.84375 0 L 3.84375 -35.625 L 13.46875 -35.625 L 13.46875 -7.78125 L 27.1875 -7.78125 L 27.1875 0 Z M 3.84375 0 "/></g></g></g><g fill="#556ee6" fill-opacity="1"><g transform="translate(58.321268, 97.808456)"><g><path d="M 21.296875 0 L 19.46875 -3.65625 L 19.28125 -3.65625 C 17.988281 -2.0625 16.675781 -0.972656 15.34375 -0.390625 C 14.019531 0.191406 12.300781 0.484375 10.1875 0.484375 C 7.582031 0.484375 5.53125 -0.289062 4.03125 -1.84375 C 2.539062 -3.40625 1.796875 -5.601562 1.796875 -8.4375 C 1.796875 -11.375 2.816406 -13.5625 4.859375 -15 C 6.910156 -16.4375 9.878906 -17.242188 13.765625 -17.421875 L 18.375 -17.5625 L 18.375 -17.953125 C 18.375 -20.234375 17.253906 -21.375 15.015625 -21.375 C 12.992188 -21.375 10.429688 -20.691406 7.328125 -19.328125 L 4.578125 -25.609375 C 7.796875 -27.265625 11.859375 -28.09375 16.765625 -28.09375 C 20.304688 -28.09375 23.046875 -27.210938 24.984375 -25.453125 C 26.929688 -23.703125 27.90625 -21.253906 27.90625 -18.109375 L 27.90625 0 Z M 14.234375 -6.234375 C 15.390625 -6.234375 16.375 -6.597656 17.1875 -7.328125 C 18.007812 -8.066406 18.421875 -9.019531 18.421875 -10.1875 L 18.421875 -12.328125 L 16.234375 -12.234375 C 13.097656 -12.117188 11.53125 -10.960938 11.53125 -8.765625 C 11.53125 -7.078125 12.429688 -6.234375 14.234375 -6.234375 Z M 14.234375 -6.234375 "/></g></g></g><g fill="#556ee6" fill-opacity="1"><g transform="translate(89.417621, 97.808456)"><g><path d="M 20.15625 -28.09375 C 23.15625 -28.09375 25.535156 -26.832031 27.296875 -24.3125 C 29.066406 -21.800781 29.953125 -18.316406 29.953125 -13.859375 C 29.953125 -9.378906 29.0625 -5.867188 27.28125 -3.328125 C 25.5 -0.785156 23.023438 0.484375 19.859375 0.484375 C 18.835938 0.484375 17.925781 0.375 17.125 0.15625 C 16.332031 -0.0625 15.625 -0.363281 15 -0.75 C 14.375 -1.144531 13.644531 -1.796875 12.8125 -2.703125 L 12.234375 -2.703125 L 10.71875 0 L 3.296875 0 L 3.296875 -37.921875 L 12.8125 -37.921875 L 12.8125 -29.34375 C 12.8125 -28.3125 12.703125 -26.546875 12.484375 -24.046875 L 12.8125 -24.046875 C 13.738281 -25.484375 14.804688 -26.515625 16.015625 -27.140625 C 17.234375 -27.773438 18.613281 -28.09375 20.15625 -28.09375 Z M 16.671875 -20.609375 C 15.335938 -20.609375 14.359375 -20.144531 13.734375 -19.21875 C 13.117188 -18.300781 12.8125 -16.847656 12.8125 -14.859375 L 12.8125 -13.53125 C 12.8125 -11.269531 13.117188 -9.644531 13.734375 -8.65625 C 14.359375 -7.675781 15.367188 -7.1875 16.765625 -7.1875 C 17.890625 -7.1875 18.75 -7.757812 19.34375 -8.90625 C 19.945312 -10.050781 20.25 -11.738281 20.25 -13.96875 C 20.25 -18.394531 19.054688 -20.609375 16.671875 -20.609375 Z M 16.671875 -20.609375 "/></g></g></g><g clip-path="url(#id1)"><path fill="#ffffff" d="M 74.683594 3.808594 C 35.523438 3.808594 3.808594 35.523438 3.808594 74.683594 C 3.808594 113.839844 35.523438 145.558594 74.683594 145.558594 C 113.839844 145.558594 145.558594 113.839844 145.558594 74.683594 C 145.558594 35.523438 113.839844 3.808594 74.683594 3.808594 Z M 74.683594 131.382812 C 43.355469 131.382812 17.980469 106.007812 17.980469 74.683594 C 17.980469 43.355469 43.355469 17.980469 74.683594 17.980469 C 106.007812 17.980469 131.382812 43.355469 131.382812 74.683594 C 131.382812 106.007812 106.007812 131.382812 74.683594 131.382812 Z M 74.683594 131.382812 " fill-opacity="1" fill-rule="nonzero"/></g><path stroke-linecap="butt" transform="matrix(0.00000000000000033, -5.395183, 4.8, 0.000000000000000294, 72.968404, 16.941554)" fill="none" stroke-linejoin="miter" d="M 0.0000274693 0.000072043 L 2.502259 0.000072043 " stroke="#556ee6" stroke-width="1" stroke-opacity="1" stroke-miterlimit="4"/><path stroke-linecap="butt" transform="matrix(-5.395183, -0.000000000000000661, 0.000000000000000588, -4.8, 16.943681, 74.566061)" fill="none" stroke-linejoin="miter" d="M -0.000302343 -0.0000719583 L 2.50193 -0.0000719583 " stroke="#556ee6" stroke-width="1" stroke-opacity="1" stroke-miterlimit="4"/><path stroke-linecap="butt" transform="matrix(-5.395183, -0.000000000000000661, 0.000000000000000588, -4.8, 146.192806, 72.669183)" fill="none" stroke-linejoin="miter" d="M 0.000259356 0.000252877 L 2.502491 0.000252877 " stroke="#556ee6" stroke-width="1" stroke-opacity="1" stroke-miterlimit="4"/><path stroke-linecap="butt" transform="matrix(0.00000000000000033, -5.395183, 4.8, 0.000000000000000294, 74.446307, 146.190682)" fill="none" stroke-linejoin="miter" d="M -0.00013419 -0.000207252 L 2.502098 -0.000207252 " stroke="#556ee6" stroke-width="1" stroke-opacity="1" stroke-miterlimit="4"/><path stroke-linecap="round" transform="matrix(1.036586, -1.961773, 1.515703, 0.800886, 105.298214, 19.260528)" fill="none" stroke-linejoin="miter" d="M 0.499338 0.000386155 L 2.882385 -0.000592623 " stroke="#556ee6" stroke-width="1" stroke-opacity="1" stroke-miterlimit="4"/><path stroke-linecap="round" transform="matrix(2.034032, -0.886442, 0.684882, 1.571532, 127.545433, 39.736259)" fill="none" stroke-linejoin="miter" d="M 0.500034 -0.0000254136 L 2.883425 -0.000371424 " stroke="#556ee6" stroke-width="1" stroke-opacity="1" stroke-miterlimit="4"/><path stroke-linecap="round" transform="matrix(1.036586, -1.961773, 1.515703, 0.800886, 35.792731, 133.517865)" fill="none" stroke-linejoin="miter" d="M 0.501037 0.000264684 L 2.882527 0.000350452 " stroke="#556ee6" stroke-width="1" stroke-opacity="1" stroke-miterlimit="4"/><path stroke-linecap="round" transform="matrix(2.034032, -0.886442, 0.684882, 1.571532, 13.403793, 109.982463)" fill="none" stroke-linejoin="miter" d="M 0.500473 0.000152504 L 2.883864 -0.000193506 " stroke="#556ee6" stroke-width="1" stroke-opacity="1" stroke-miterlimit="4"/><path stroke-linecap="round" transform="matrix(-1.889678, -1.162833, 0.898427, -1.460001, 134.379193, 113.104918)" fill="none" stroke-linejoin="miter" d="M 0.500307 -0.000200679 L 2.883261 -0.00119181 " stroke="#556ee6" stroke-width="1" stroke-opacity="1" stroke-miterlimit="4"/><path stroke-linecap="round" transform="matrix(-0.813803, -2.064168, 1.594816, -0.628759, 108.126989, 136.639564)" fill="none" stroke-linejoin="miter" d="M 0.499426 -0.00113123 L 2.883372 0.000474833 " stroke="#556ee6" stroke-width="1" stroke-opacity="1" stroke-miterlimit="4"/><path stroke-linecap="round" transform="matrix(-1.453672, -1.676276, 1.295123, -1.123135, 39.488422, 21.754124)" fill="none" stroke-linejoin="miter" d="M 0.500616 0.000793752 L 2.883025 -0.000442979 " stroke="#556ee6" stroke-width="1" stroke-opacity="1" stroke-miterlimit="4"/><path stroke-linecap="round" transform="matrix(-2.089198, -0.747207, 0.577306, -1.614154, 18.617653, 44.367247)" fill="none" stroke-linejoin="miter" d="M 0.499727 0.00102823 L 2.883045 -0.00113243 " stroke="#556ee6" stroke-width="1" stroke-opacity="1" stroke-miterlimit="4"/></svg>